<?xml version="1.0" encoding="utf-8"?>
<!DOCTYPE svg PUBLIC "-//W3C//DTD SVG 1.1//EN" "http://www.w3.org/Graphics/SVG/1.1/DTD/svg11.dtd">
<svg version="1.1" id="Layer_1" xmlns="http://www.w3.org/2000/svg" xmlns:xlink="http://www.w3.org/1999/xlink" x="0px" y="0px"
	 viewBox="0 0 150 150" enable-background="new 0 0 150 150" xml:space="preserve">
<g>
	<g>
		<path fill="#5A197E" d="M36.4,89.4l-4,17.7c-0.4,2,1.1,3.9,3.1,3.9l18.2,0c2.7,0,4.1-3.1,2.5-5.1L41.9,88.1
			C40.3,86.1,37,86.8,36.4,89.4z"/>
		<path fill="#5A197E" d="M59.6,104.7c0.9,1.2,2.7,1.4,3.9,0.4l48.3-38.5c6.7-5.4,7.9-15,2.6-21.7l0,0c-5.4-6.7-15-7.6-21.7-2.3
			L44.3,81.2c-1.2,0.9-1.4,2.7-0.4,3.9L59.6,104.7z"/>
	</g>
	<path fill="#531964" d="M75,150c-41.4,0-75-33.6-75-75S33.6,0,75,0s75,33.6,75,75S116.4,150,75,150z M75,6.4
		C37.2,6.4,6.4,37.2,6.4,75s30.8,68.6,68.6,68.6s68.6-30.8,68.6-68.6S112.8,6.4,75,6.4z"/>
</g>
</svg>
