<?xml version="1.0" encoding="utf-8"?>
<!DOCTYPE svg PUBLIC "-//W3C//DTD SVG 1.1//EN" "http://www.w3.org/Graphics/SVG/1.1/DTD/svg11.dtd">
<svg version="1.1" id="Layer_1" xmlns="http://www.w3.org/2000/svg" xmlns:xlink="http://www.w3.org/1999/xlink" x="0px" y="0px"
	 viewBox="0 0 150 150" enable-background="new 0 0 150 150" xml:space="preserve">
<g>
	<g>
		<path fill="#0099D0" d="M113,59.1c0-1.7-1.4-3.1-3.1-3.1H63.1c-1.7,0-3.1,1.4-3.1,3.1v46.8c0,1.7,1.4,3.1,3.1,3.1h46.8
			c1.7,0,3.1-1.4,3.1-3.1V59.1z"/>
		<path fill="#0099D0" d="M57,59.8c0-3.6,2.4-6.8,6-6.8h29v-9.1c0-2.6-2.4-4.9-5-4.9H40.6C38,39,36,41.3,36,43.9v46.4
			c0,2.6,2,4.8,4.6,4.8H57V59.8z"/>
	</g>
	<path fill="#007EA0" d="M75,150c-41.4,0-75-33.6-75-75S33.6,0,75,0s75,33.6,75,75S116.4,150,75,150z M75,6.4
		C37.2,6.4,6.4,37.2,6.4,75s30.8,68.6,68.6,68.6s68.6-30.8,68.6-68.6S112.8,6.4,75,6.4z"/>
</g>
</svg>
