<?xml version="1.0" encoding="utf-8"?>
<!DOCTYPE svg PUBLIC "-//W3C//DTD SVG 1.1//EN" "http://www.w3.org/Graphics/SVG/1.1/DTD/svg11.dtd">
<svg version="1.1" id="Layer_1" xmlns="http://www.w3.org/2000/svg" xmlns:xlink="http://www.w3.org/1999/xlink" x="0px" y="0px"
	 viewBox="0 0 150 150" enable-background="new 0 0 150 150" xml:space="preserve">
<g>
	<g>
		<path fill="#CE001C" d="M82.1,70.6c2.4-2,3.8-4.9,3.8-8.3c0-6-4.8-10.8-10.8-10.8c-6,0-10.8,4.8-10.8,10.8c0,3.3,1.5,6.2,3.7,8.2
			l-12.7,33.2l-0.1,0.1l0.1,0.1l-4.3,11.3c-0.5,1.4,0.2,3,1.6,3.5c0.3,0.1,0.6,0.2,1,0.2c1.1,0,2.1-0.7,2.5-1.7l3.8-9.9L75.1,97
			l16.1,10.9l3.7,9.3c0.6,1.4,2.1,2.1,3.5,1.5c1.4-0.6,2.1-2.1,1.5-3.5L82.1,70.6z M75.1,73.2c0.7,0,1.4-0.1,2-0.2l5.1,12.7
			l-7.1,4.8l-7-4.7L73,73C73.7,73.1,74.4,73.2,75.1,73.2z M63.3,98.5l2.9-7.5l4.1,2.8L63.3,98.5z M79.9,93.8l4.4-3l3.2,8.1
			L79.9,93.8z"/>
		<path fill="#CE001C" d="M76.3,32.1c-16.7-0.7-30.8,12.3-31.5,29c-0.4,9.5,3.6,18.4,10.9,24.5c0.5,0.4,1.1,0.6,1.7,0.6
			c0.8,0,1.6-0.3,2.1-1c1-1.2,0.8-2.9-0.3-3.8c-6-5-9.3-12.3-8.9-20.1C50.7,47.7,62.4,37,76,37.6c13.7,0.6,24.4,12.2,23.8,25.9
			c-0.3,6.9-3.5,13.5-8.8,18c-1.1,1-1.3,2.7-0.3,3.8c1,1.1,2.7,1.3,3.8,0.3c6.5-5.5,10.4-13.4,10.8-21.9
			C105.9,47,92.9,32.8,76.3,32.1z"/>
		<path fill="#CE001C" d="M86.7,72.8c-1,1.1-0.9,2.8,0.2,3.8c1.1,1,2.8,0.9,3.8-0.2c3.1-3.5,5-7.9,5.3-12.6
			c0.7-11-7.3-20.8-18.3-22.3L77,41.4c-0.2,0-0.4-0.1-0.6-0.1c-5.6-0.4-11,1.5-15.3,5.2c-4.2,3.7-6.8,8.8-7.1,14.5
			c-0.4,5.7,1.5,11.1,5.3,15.4c0.5,0.6,1.3,0.9,2,0.9c0.6,0,1.3-0.2,1.8-0.7c1.1-1,1.2-2.7,0.2-3.8c-2.8-3.2-4.2-7.2-3.9-11.4
			c0.3-4.2,2.2-8,5.3-10.7c3.1-2.8,7.2-4.1,11.3-3.8c0.1,0,0.1,0,0.2,0c0.1,0,0.2,0,0.3,0l0.5,0.1c8.1,1.1,14.1,8.4,13.5,16.5
			C90.4,66.9,89,70.1,86.7,72.8z"/>
	</g>
	<path fill="#B80020" d="M75,150c-41.4,0-75-33.6-75-75S33.6,0,75,0s75,33.6,75,75S116.4,150,75,150z M75,6.4
		C37.2,6.4,6.4,37.2,6.4,75s30.8,68.6,68.6,68.6s68.6-30.8,68.6-68.6S112.8,6.4,75,6.4z"/>
</g>
</svg>
